<svg width="65" height="80" viewBox="0 0 65 80" fill="none" xmlns="http://www.w3.org/2000/svg">
<path d="M6.95087 69.1371V79.6584H3.7603V69.1371H0V66.4023H10.7112V69.1371H6.95087Z" fill="white"/>
<path d="M17.737 79.6957V78.4043H17.699C17.2812 79.2399 16.2177 79.9616 14.8883 79.9616C12.3814 79.9616 11.5078 78.0245 11.5078 76.1253V70.3519H14.5844V75.4037C14.5844 76.4672 14.8503 77.3788 15.9898 77.3788C17.0533 77.3788 17.623 76.4292 17.623 75.3657V70.314H20.6997V79.6577H17.737V79.6957Z" fill="white"/>
<path d="M26.4362 72.6672V76.2376C26.4362 77.1112 26.7021 77.567 27.6137 77.567C27.9175 77.567 28.2973 77.529 28.5252 77.415L28.5632 79.656C28.1454 79.808 27.4237 79.9219 26.778 79.9219C24.2712 79.9219 23.4735 78.5925 23.4735 76.6174V72.6672H21.9922V70.3502H23.4735V67.8813H26.4742V70.3502H28.6772V72.6672H26.4362Z" fill="white"/>
<path d="M30.159 71.6423C31.2605 70.6167 32.8178 70.085 34.3371 70.085C37.4517 70.085 38.6292 71.6043 38.6292 75.0227V79.7326H35.8185V78.7451H35.7805C35.3247 79.5047 34.2612 79.9605 33.1217 79.9605C31.6403 79.9605 29.7412 79.2388 29.7412 77.0358C29.7412 74.339 33.0077 73.8833 35.7425 73.8833V73.7313C35.7425 72.8197 35.0208 72.3639 34.0712 72.3639C33.1976 72.3639 32.324 72.7817 31.7543 73.3135L30.159 71.6423ZM35.7805 75.6305H35.4006C34.0333 75.6305 32.514 75.7824 32.514 76.9219C32.514 77.6436 33.2356 77.8715 33.8434 77.8715C35.0968 77.8715 35.7805 77.1118 35.7805 75.9723V75.6305Z" fill="white"/>
<path d="M44.0221 72.6672V76.2376C44.0221 77.1112 44.288 77.567 45.1996 77.567C45.5035 77.567 45.8833 77.529 46.1112 77.415L46.1492 79.656C45.7314 79.808 45.0097 79.9219 44.364 79.9219C41.8571 79.9219 41.0595 78.5925 41.0595 76.6174V72.6672H39.5781V70.3502H41.0595V67.8813H44.0601V70.3502H46.2631V72.6672H44.0221Z" fill="white"/>
<path d="M52.1891 79.9998C49.3784 79.9998 47.0234 78.0627 47.0234 74.9861C47.0234 71.9475 49.3784 70.0483 52.1891 70.0483C55.0378 70.0483 57.3928 71.9095 57.3928 74.9861C57.3548 78.0247 54.9998 79.9998 52.1891 79.9998ZM52.1891 72.5932C50.7457 72.5932 49.9861 73.7707 49.9861 74.9861C49.9861 76.2016 50.7457 77.417 52.1891 77.417C53.6324 77.417 54.3921 76.2016 54.3921 74.9861C54.3921 73.7707 53.6324 72.5932 52.1891 72.5932Z" fill="white"/>
<path d="M64.7989 72.8578C64.5331 72.7818 64.2672 72.7818 64.0013 72.7818C62.368 72.7818 61.7983 74.1492 61.7983 74.9089V79.6947H58.7217V70.3509H61.6843V71.7183H61.7223C62.1781 70.7688 63.1277 70.123 64.2672 70.123C64.4951 70.123 64.7609 70.123 64.9129 70.199L64.7989 72.8578Z" fill="white"/>
<path d="M18.7255 10.8698C17.6999 13.4147 19.3712 14.7061 19.3712 14.7061C19.3712 14.7061 18.9914 14.3642 19.713 12.9589C20.4347 11.5535 23.0175 9.50241 22.7137 6.4258C21.4223 6.27387 20.1308 6.08396 18.9534 5.89404C19.2192 6.31185 19.9789 7.79319 18.7255 10.8698Z" fill="white"/>
<path d="M22.7891 17.2513C21.0419 18.9605 22.1434 20.2139 22.1434 20.2139C22.1434 20.2139 21.2318 18.6566 30.9174 14.3646C38.4 11.0601 40.8309 8.09739 41.5526 6.91992C40.2992 6.99589 38.9318 7.07185 37.4505 7.10984C36.159 10.6043 24.8022 15.2382 22.7891 17.2513Z" fill="white"/>
<path d="M24.993 21.9995C22.9799 23.5568 24.0434 24.8103 24.0434 24.8103C24.917 22.7212 26.5883 21.9615 37.8312 17.0997C49.9477 11.8201 53.5941 6.00875 54.4297 4.37549C53.9739 4.60339 53.3662 4.83128 52.6825 5.05918C47.9726 13.0356 28.2975 19.4927 24.993 21.9995Z" fill="white"/>
<path d="M29.2459 33.6224C26.6251 35.7495 26.739 37.9525 26.739 37.9525C26.739 37.9525 27.7266 35.2557 34.6015 31.2675C42.8058 26.5956 43.1476 23.1392 43.1476 23.1392C40.1849 27.8111 35.0953 28.9126 29.2459 33.6224Z" fill="white"/>
<path d="M31.716 36.3193C26.6643 39.6238 26.8922 42.7384 26.8922 42.7384C27.9937 39.8137 31.9819 37.6867 34.2229 36.1294C37.6033 33.6985 40.9838 30.6599 41.5536 27.8491C40.7939 29.7483 36.7297 33.0148 31.716 36.3193Z" fill="white"/>
<path d="M28.4872 44.1816C26.4741 47.1063 26.8159 49.3853 26.8159 49.3853C27.4236 45.625 30.956 43.1941 34.2226 40.3454C37.4511 37.5346 39.4642 35.8634 40.5277 31.9512C39.4642 35.2557 30.5382 41.181 28.4872 44.1816Z" fill="white"/>
<path d="M27.9936 57.4377C27.9936 57.4377 27.7657 52.8797 30.9562 49.1574C33.691 45.9669 38.7427 41.3709 39.9202 36.0913C37.8311 40.6493 33.0833 44.9793 30.3105 48.0559C26.7401 52.0061 27.9936 57.4377 27.9936 57.4377Z" fill="white"/>
<path d="M35.5519 48.7019C31.2598 54.2854 31.5257 58.0837 31.5257 58.0837C32.4753 58.5395 33.045 58.0457 33.045 58.0457C33.045 58.0457 33.5388 53.4118 35.5139 50.5631C40.4517 43.4603 39.806 40.1558 39.806 40.1558C39.806 40.1558 39.8059 43.1184 35.5519 48.7019Z" fill="white"/>
<path d="M33.3862 10.2248C23.3207 5.36301 19.8643 0.00742774 19.8643 0.00742774C18.8767 -0.068538 16.6357 0.463224 16.6357 0.463224C16.6357 0.463224 21.1557 5.59091 29.8158 9.80701C30.4615 10.1109 31.3731 10.5667 32.3986 11.0984C32.8164 10.8325 33.2343 10.5667 33.6141 10.3008C33.5001 10.3008 33.4242 10.2628 33.3862 10.2248Z" fill="white"/>
<path d="M43.3001 22.569C43.6799 20.7838 43.1861 18.4288 41.173 15.96C40.8312 16.1119 40.4893 16.3018 40.1475 16.4537C42.0846 18.2769 43.414 20.366 43.3001 22.569Z" fill="white"/>
<path d="M38.5514 15.0116C38.9692 14.8217 39.349 14.5938 39.7668 14.4038C38.8552 13.5682 37.7537 12.7326 36.4623 11.897C36.0445 12.1629 35.6267 12.3907 35.1709 12.6566C36.2724 13.3783 37.4499 14.1759 38.5514 15.0116Z" fill="white"/>
<path d="M32.5127 17.8598C33.0445 17.6319 33.5762 17.366 34.108 17.1381C32.8546 16.4164 31.5252 15.7707 30.1578 15.125C29.588 15.3909 29.0563 15.6568 28.5625 15.8847C30.0058 16.5683 31.3352 17.2141 32.5127 17.8598Z" fill="white"/>
<path d="M11.1289 2.96826C11.1289 2.96826 13.104 7.03243 18.3836 10.7168C18.5356 10.3369 18.6495 9.99509 18.7635 9.65324C15.6489 7.79208 13.2939 5.77899 11.1289 2.96826Z" fill="white"/>
<path d="M41.4014 24.7355C41.4773 24.6595 41.5533 24.5456 41.6672 24.4696C41.0975 22.2286 38.9325 20.1776 36.0838 18.3164C35.552 18.5443 35.0202 18.7722 34.5645 19.0001C38.1348 21.0892 40.3758 22.9503 41.4014 24.7355Z" fill="white"/>
<path d="M20.7012 12.1623C21.5748 12.656 22.4864 13.1118 23.4739 13.5676C24.3855 13.9475 25.2211 14.3273 26.0568 14.7071C26.5126 14.4412 27.0063 14.1753 27.5001 13.9095C27.1583 13.7575 26.7784 13.6056 26.4366 13.4537C24.5754 12.656 22.9422 11.8964 21.4608 11.1367C21.2709 11.4026 21.043 11.6685 20.8531 11.9344C20.8151 12.0103 20.7771 12.0863 20.7012 12.1623Z" fill="white"/>
<path d="M38.6282 27.0138C38.8561 26.8619 39.084 26.672 39.3119 26.52C37.7926 24.1651 34.8679 22.0001 31.2595 20.4048C30.6898 20.6707 30.196 20.8986 29.7402 21.0885C33.3106 22.7217 36.5392 24.5449 38.6282 27.0138Z" fill="white"/>
<path d="M27.6142 20.1391C28.032 19.9492 28.5258 19.7213 29.0196 19.4934C28.6018 19.3415 28.222 19.2276 27.8041 19.0756C26.7026 18.7338 25.6771 18.3539 24.8035 17.9741C24.4996 18.164 24.2338 18.354 24.0059 18.5059C24.5756 18.8097 25.1833 19.1136 25.867 19.3795C26.4368 19.6074 27.0065 19.8733 27.6142 20.1391Z" fill="white"/>
<path d="M22.599 16.9091C20.6239 15.8456 19.5983 14.972 19.4844 14.896C19.5603 15.0099 20.206 16.0735 22.1432 17.4029C22.2571 17.2889 22.3711 17.137 22.523 16.9851C22.523 16.9471 22.561 16.9471 22.599 16.9091Z" fill="white"/>
<path d="M40.11 29.2157C40.1859 29.1018 40.2999 29.0258 40.3759 28.9119C40.2999 28.57 40.186 28.2662 40.072 27.9243C39.9201 28.0383 39.7681 28.1902 39.6162 28.3041C39.7681 28.608 39.9581 28.9119 40.11 29.2157Z" fill="white"/>
<path d="M39.2744 33.3192C39.3884 33.1672 39.4644 33.0533 39.5783 32.9393C39.5403 32.6735 39.4644 32.4456 39.3884 32.1797C39.2365 32.3316 39.0845 32.4836 38.9326 32.6355C39.0466 32.8634 39.1605 33.0913 39.2744 33.3192Z" fill="white"/>
<path d="M37.9829 31.23C38.2108 31.0401 38.4387 30.8502 38.6666 30.6603C38.4387 30.3185 38.2108 29.9766 37.9069 29.6348C37.641 29.8247 37.3752 30.0146 37.0713 30.2045C37.3752 30.5464 37.679 30.8882 37.9829 31.23Z" fill="white"/>
<path d="M24.4606 21.9604C22.7514 21.2387 22.1816 20.2512 22.1816 20.2891C22.2576 20.555 22.7894 21.4666 24.0048 22.4542C24.1188 22.2643 24.2707 22.1123 24.4606 21.9604Z" fill="white"/>
<path d="M35.5518 28.9505C35.8936 28.7606 36.1975 28.5707 36.5393 28.3808C35.5138 27.5451 34.2224 26.7475 32.6651 25.9878C29.7404 24.5445 27.7653 23.6329 26.284 22.9492C25.9801 23.1391 25.7142 23.329 25.4863 23.519C26.322 24.0127 27.3475 24.5825 28.6389 25.1522C31.6395 26.4436 33.8805 27.6591 35.5518 28.9505Z" fill="white"/>
<path d="M38.8185 37.3821C38.8565 37.3441 38.8945 37.2682 38.8945 37.2302C38.8185 37.0403 38.7426 36.8124 38.6666 36.5845C38.6286 36.6604 38.5526 36.6984 38.5146 36.7744C38.6286 37.0023 38.7425 37.1922 38.8185 37.3821Z" fill="white"/>
<path d="M36.0071 32.8235C35.6273 32.4436 35.1715 32.0258 34.6777 31.646C34.4119 31.7979 34.184 31.9499 33.9561 32.1018C34.5258 32.4816 35.0196 32.8614 35.4754 33.2413C35.6653 33.0893 35.8172 32.9374 36.0071 32.8235Z" fill="white"/>
<path d="M31.0701 29.3309C26.4742 26.976 24.575 25.4567 24.1952 25.1528H24.1572C24.3092 25.4947 25.3727 27.2799 32.0957 30.9262C32.1336 30.9262 32.1716 30.9642 32.1716 30.9642C32.4375 30.7743 32.7413 30.5844 33.0072 30.4325C32.4375 30.0906 31.7918 29.7108 31.0701 29.3309Z" fill="white"/>
<path d="M37.4885 35.293C37.6024 35.1791 37.6784 35.1031 37.7923 34.9891C37.6404 34.7613 37.4505 34.4954 37.2606 34.2295C37.1466 34.3434 36.9947 34.4574 36.8428 34.5713C37.0707 34.7992 37.2985 35.0271 37.4885 35.293Z" fill="white"/>
<path d="M35.3242 51.6639C36.3118 54.2088 36.1978 55.918 36.1978 55.918C36.1978 55.918 36.7296 56.4118 37.2234 55.918C37.2234 55.918 37.1474 53.639 35.9319 50.7144C35.894 50.7523 35.8939 50.7903 35.856 50.7903C35.6661 51.0562 35.4762 51.3601 35.3242 51.6639Z" fill="white"/>
<path d="M34.3742 49.6128C34.5641 49.3469 34.7541 49.043 34.9819 48.7772C34.6021 48.0935 34.1843 47.4098 33.6525 46.7261C33.4247 46.954 33.1968 47.2199 33.0068 47.4478C33.5766 48.2074 34.0324 48.9291 34.3742 49.6128Z" fill="white"/>
<path d="M29.7015 42.2069C29.2457 41.7512 28.8279 41.2954 28.4481 40.9155C28.2961 41.1054 28.1442 41.2574 28.0303 41.4473C28.3341 41.8651 28.676 42.3589 29.0938 42.8527C29.2837 42.6248 29.5116 42.4348 29.7015 42.2069Z" fill="white"/>
<path d="M26.7016 38.1045C26.7016 38.1045 26.7396 38.1045 26.7016 38.1045C26.7016 38.3704 26.6637 39.206 27.2714 40.1556C27.3473 40.0416 27.4233 39.8897 27.4993 39.7757C27.0815 39.244 26.8156 38.5223 26.7016 38.1045Z" fill="white"/>
<path d="M30.9932 45.0152C31.297 45.3191 31.5249 45.623 31.7908 45.9268C31.8668 45.8509 31.9427 45.7749 32.0187 45.6989C32.1706 45.547 32.3226 45.3951 32.4365 45.2431C31.9427 44.6734 31.449 44.1036 30.9932 43.6099C30.7273 43.8378 30.4994 44.0657 30.2715 44.2936C30.4994 44.4835 30.7273 44.7493 30.9932 45.0152Z" fill="white"/>
<path d="M30.0823 56.032C30.0823 56.032 30.614 56.5258 31.1458 56.108C31.1458 56.108 31.6016 53.6011 30.3861 50.5625C30.1962 50.8664 30.0063 51.1702 29.8164 51.5121C30.652 54.1709 30.0823 56.032 30.0823 56.032Z" fill="white"/>
<path d="M28.8675 47.7908C28.6017 47.4489 28.4118 47.1071 28.2218 46.8032C28.1079 46.9931 27.9939 47.1831 27.918 47.373C28.1459 47.8288 28.4117 48.3225 28.7156 48.8923C28.7916 49.0442 28.8675 49.1961 28.9435 49.3481C29.0954 49.1202 29.2474 48.8543 29.3993 48.6264C29.2474 48.2846 29.0575 48.0567 28.8675 47.7908Z" fill="white"/>
<path d="M26.892 42.8521C26.8541 43.1939 26.8161 44.2954 27.2339 45.6248C27.3099 45.4729 27.3858 45.3209 27.4618 45.169C27.044 44.1815 26.93 43.2699 26.892 42.8521Z" fill="white"/>
</svg>
