<svg width="137" height="36" viewBox="0 0 137 36" fill="none" xmlns="http://www.w3.org/2000/svg">
<g clip-path="url(#clip0_62_4051)">
<path d="M41.5195 15.2484C41.5195 14.9587 41.8812 14.7415 42.1705 14.6691C43.1832 14.5243 43.4725 14.2346 43.8342 13.1485C45.2085 9.60046 46.5829 6.05241 47.9572 2.50436C48.1019 2.06991 48.0296 1.70786 47.5232 1.56304C47.2339 1.41823 47.0892 1.27341 47.0892 1.05618C47.0892 0.838953 47.2339 0.549316 47.8126 0.549316H49.1869C50.5612 0.549316 50.8506 1.27341 51.1399 1.92509L55.5523 13.3657C55.9139 14.2346 56.0586 14.4519 56.9989 14.5967C57.2883 14.6691 57.5053 14.8863 57.5053 15.2484C57.5053 15.7552 56.9989 15.8276 56.6373 15.8276C55.5523 15.8276 53.8886 15.8276 52.8036 15.8276C51.9356 15.8276 51.4292 15.8276 51.4292 15.3208C51.4292 15.1035 51.5739 14.9587 51.7909 14.8863C52.9483 14.6691 53.1653 14.4519 52.8036 13.5105L52.2249 11.9175C52.0802 11.4831 51.7909 11.1935 51.2846 11.1935H46.7999C46.2212 11.1935 46.0042 11.2659 45.7872 11.7727L45.2085 13.3657C44.8469 14.4519 44.9192 14.7415 46.0766 14.8863C46.3659 14.9587 46.6552 15.1035 46.6552 15.3932C46.6552 15.8276 46.2212 15.9 45.7872 15.9H42.2429C41.6642 15.7552 41.5195 15.4656 41.5195 15.2484ZM50.8506 9.89009C51.2122 9.89009 51.4292 9.74527 51.3569 9.38323C50.6336 7.42818 49.9102 5.47314 49.2592 3.51809C49.1146 3.22845 48.9699 3.22845 48.8252 3.51809C48.1019 5.47314 47.3786 7.42818 46.6552 9.45564C46.5106 9.89009 46.8722 9.9625 47.2339 9.9625H50.8506V9.89009Z" fill="white"/>
<path d="M55.625 17.8553C55.625 17.2036 56.059 16.6968 56.6377 16.6968C57.144 16.6968 57.5057 16.9864 57.6503 17.4209C57.7227 18.0001 57.9397 18.507 58.3737 18.507C59.0247 18.507 60.0374 17.4209 60.6884 16.6244C60.9054 16.3347 60.9054 16.1899 60.5437 15.3934C59.531 12.6419 58.663 9.81792 57.795 7.50083C57.5057 6.70433 57.2887 6.4871 56.6377 6.41469C56.3483 6.34228 56.1313 6.12506 56.1313 5.83542C56.1313 5.40096 56.493 5.25615 57.2887 5.25615C58.5907 5.25615 59.314 5.25615 60.616 5.25615C61.6287 5.25615 61.7734 5.47337 61.7734 5.83542C61.7734 6.12506 61.5564 6.26987 61.4117 6.34228C60.2544 6.55951 59.965 6.84915 60.2544 7.50083C60.9054 9.23865 61.6287 11.6281 62.352 13.4384C62.4967 13.728 62.7137 13.6556 62.786 13.4384C63.7987 11.9178 64.739 10.3248 64.8837 9.09383C65.0284 7.93528 64.6667 7.50083 64.1604 7.21119C63.7264 6.84915 63.5817 6.41469 63.5817 6.05265C63.5817 5.76301 63.7264 5.47337 63.9434 5.32856C64.088 5.18374 64.3774 5.11133 64.6667 5.11133C64.956 5.11133 65.2454 5.25615 65.4624 5.40096C65.6794 5.54578 65.824 5.76301 65.9687 5.98024C66.258 6.4871 66.4027 7.13878 66.4027 7.93528C66.4027 8.94901 65.8964 10.4696 64.6667 12.6419C64.1604 13.5108 63.5094 14.5245 62.786 15.5382C61.1947 17.6381 59.3864 19.5932 57.7227 19.5932C56.4207 19.6656 55.625 18.9415 55.625 17.8553Z" fill="white"/>
<path d="M68.862 11.8454V7.79047C68.862 7.2836 68.7897 6.84915 68.2833 6.84915C67.7046 6.84915 67.1983 6.92156 67.126 6.55951C67.126 6.19746 67.4876 6.05265 67.8493 5.90783C68.862 5.61819 69.947 5.18374 70.5257 5.18374C71.032 5.18374 71.249 5.32856 71.249 5.83542V11.4109C71.249 13.4384 72.0447 14.2349 73.419 14.2349C74.6487 14.2349 75.9507 13.1487 75.9507 10.7592V7.71806C75.9507 7.21119 75.8783 6.77674 75.372 6.77674C74.7933 6.77674 74.287 6.84915 74.2147 6.4871C74.2147 6.12506 74.5763 5.98024 74.938 5.83542C75.9507 5.54578 77.0357 5.11133 77.6144 5.11133C78.1207 5.11133 78.3377 5.25615 78.3377 5.76301V13.1487C78.3377 13.6556 78.41 14.0176 78.9164 14.0901C79.495 14.0901 80.0014 14.0176 80.0737 14.3797C80.0737 14.7417 79.712 14.8866 79.3504 15.0314C78.3377 15.321 77.2527 15.7555 76.674 15.7555C76.1677 15.7555 75.9507 15.6106 75.9507 15.1038V13.9452C75.9507 13.6556 75.8784 13.5832 75.806 13.5832C75.6614 13.5832 75.155 15.8279 72.2617 15.8279C70.381 15.9727 68.862 14.8141 68.862 11.8454Z" fill="white"/>
<path d="M80.8691 10.6865C80.8691 7.57294 82.6775 5.18344 85.5708 5.18344C87.6685 5.18344 88.1748 6.48681 88.4642 6.48681C88.6088 6.48681 88.6812 6.05235 88.6812 5.18344V2.93876C88.6812 2.4319 88.6088 2.06985 88.1025 1.99744C87.5238 1.99744 87.0175 2.06985 86.9452 1.7078C86.9452 1.34576 87.2345 1.20094 87.6685 1.05612C88.6812 0.694077 89.7662 0.332031 90.3449 0.332031C90.8512 0.332031 91.0682 0.476849 91.0682 0.983713V13.2209C91.0682 13.8001 91.1405 14.1622 91.6469 14.1622C92.2255 14.1622 92.7319 14.0174 92.8042 14.4518C92.8042 14.8139 92.4425 14.9587 92.0809 15.1035C91.0682 15.3931 89.9832 15.8276 89.4045 15.8276C88.8982 15.8276 88.6812 15.6828 88.6812 15.1759V14.2346C88.6812 13.8001 88.6088 13.5829 88.5365 13.5829C88.3918 13.5829 87.5962 15.9 84.9198 15.9C82.5328 15.9724 80.8691 13.8001 80.8691 10.6865ZM88.6812 11.2658V10.5417C88.6812 7.86258 87.7408 6.26958 86.0048 6.26958C84.6305 6.26958 83.4008 7.42812 83.4008 9.74522C83.4008 12.6416 84.4858 14.3794 86.1495 14.3794C87.5238 14.3794 88.6812 13.076 88.6812 11.2658Z" fill="white"/>
<path d="M93.6719 13.0039C93.6719 11.1213 95.4079 9.81792 98.3012 9.6731C99.9649 9.60069 100.254 9.45588 100.182 8.8766L100.11 8.36974C99.8926 6.99397 99.3139 6.19746 98.1566 6.19746C96.9992 6.19746 96.2036 6.84915 96.2036 8.0801C96.0589 8.73178 95.6972 9.02142 95.0462 9.02142C94.6122 9.02142 94.1782 8.73178 94.1782 8.15251C94.1782 6.4871 96.1312 5.11133 98.6629 5.11133C101.195 5.11133 102.207 6.41469 102.497 8.65937L103.003 12.7867C103.148 14.0176 103.437 14.2349 103.799 14.2349C104.305 14.2349 104.377 13.728 104.594 13.728C104.739 13.728 104.956 13.8728 104.956 14.1625C104.956 14.8866 104.16 15.9003 103.003 15.9003C101.846 15.9003 101.339 15.2486 101.05 14.2349L100.905 14.0176C100.616 14.0176 100.182 15.9727 96.9992 15.9727C94.6846 15.9727 93.6719 14.6693 93.6719 13.0039ZM100.544 11.5557L100.471 11.1937C100.399 10.542 100.182 10.542 98.8076 10.542C96.7822 10.542 96.0589 11.4109 96.0589 12.5695C96.0589 13.8728 96.7099 14.5969 98.0119 14.5969C99.5309 14.5969 100.761 13.2936 100.544 11.5557Z" fill="white"/>
<path d="M42.0986 29.0788C42.0986 25.8928 44.558 23.793 47.2343 23.793C49.9107 23.793 51.502 25.6756 51.502 27.341C51.502 28.3547 50.9957 28.6444 49.983 28.7892L45.0643 29.5133C44.8473 29.5857 44.7026 29.6581 44.7026 29.8753C44.7026 31.1787 45.7876 32.9889 47.8853 32.9889C49.4043 32.9889 50.417 32.1924 50.9957 31.4683C51.1403 31.3235 51.2127 31.2511 51.3573 31.2511C51.719 31.2511 51.8637 31.6132 51.719 31.8304C51.1403 33.2786 49.6937 34.5819 47.2343 34.5819C43.907 34.5819 42.0986 32.0476 42.0986 29.0788ZM48.6087 27.8479C49.115 27.7755 49.332 27.6307 49.332 27.2686C49.332 26.2549 48.464 24.9515 46.945 24.9515C45.7153 24.9515 44.4856 26.1101 44.4856 27.9203C44.4856 28.4996 44.6303 28.572 44.992 28.4996L48.6087 27.8479Z" fill="white"/>
<path d="M52.4416 33.8576C52.4416 33.568 52.5863 33.4956 52.8033 33.3508C53.9606 33.0611 53.9606 32.6267 53.9606 31.5405V26.3995C53.9606 25.8926 53.8883 25.5306 53.382 25.4582C52.8033 25.4582 52.2246 25.5306 52.2246 25.1685C52.2246 24.8065 52.5139 24.6617 52.9479 24.5169C53.9606 24.2272 55.0456 23.7928 55.6243 23.7928C56.1306 23.7928 56.3476 23.9376 56.3476 24.4445V25.6754C56.3476 25.8202 56.3476 25.8926 56.42 25.8926C56.5646 25.8926 57.071 23.6479 59.9643 23.6479C61.845 23.6479 63.147 24.7341 63.5087 27.6305L63.8703 31.1785C64.015 32.7715 64.0873 32.9163 65.1723 33.1335C65.4617 33.2784 65.6063 33.4232 65.6063 33.7128C65.6063 34.0749 65.3893 34.2921 64.449 34.2921C63.2193 34.2921 62.713 34.2921 61.5557 34.2921C60.3983 34.2921 60.109 34.1473 60.109 33.7128C60.109 33.4232 60.2536 33.2784 60.543 33.206C61.628 32.9887 61.7003 32.8439 61.4833 31.0337L61.1217 28.0649C60.9047 26.1823 60.326 25.3134 58.8793 25.3134C57.7943 25.3134 56.3476 26.3271 56.3476 28.7166V31.3957C56.3476 32.5543 56.3476 32.9163 57.5773 33.206C57.7943 33.3508 58.0113 33.4232 58.0113 33.7128C58.0113 34.0749 57.7943 34.2921 56.42 34.2921H54.1053C52.7309 34.4369 52.4416 34.2197 52.4416 33.8576Z" fill="white"/>
<path d="M67.7764 33.8577C67.7764 33.5681 68.138 33.3509 68.4274 33.2785C69.44 33.1337 69.7294 32.844 70.091 31.7579C71.4654 28.2098 72.8397 24.6618 74.2141 21.1137C74.3587 20.6793 74.2864 20.3172 73.7801 20.1724C73.4907 20.0276 73.3461 19.8828 73.3461 19.6656C73.3461 19.4483 73.4907 19.1587 74.0694 19.1587H75.4437C76.8181 19.1587 77.1074 19.8828 77.3968 20.5345L81.8091 31.9751C82.1708 32.844 82.3154 33.0612 83.2558 33.2061C83.5451 33.2785 83.7621 33.4957 83.7621 33.8577C83.7621 34.3646 83.2558 34.437 82.8941 34.437C81.8091 34.437 80.1454 34.437 79.0604 34.437C78.1924 34.437 77.6861 34.437 77.6861 33.9302C77.6861 33.7129 77.8308 33.5681 78.0478 33.4957C79.2051 33.2785 79.4221 33.0612 79.0604 32.1199L78.4818 30.5269C78.3371 30.0925 78.0478 29.8028 77.5414 29.8028H73.0567C72.4781 29.8028 72.2611 29.8752 72.0441 30.3821L71.4654 31.9751C71.1037 33.0612 71.1761 33.3509 72.3334 33.4957C72.6227 33.5681 72.9121 33.7129 72.9121 34.0026C72.9121 34.437 72.4781 34.5094 72.0441 34.5094H68.4997C67.921 34.437 67.7764 34.1474 67.7764 33.8577ZM77.1074 28.4995C77.4691 28.4995 77.6861 28.3546 77.6138 27.9926C76.8904 26.0376 76.1671 24.0825 75.5161 22.1275C75.3714 21.8378 75.2267 21.8378 75.0821 22.1275C74.3587 24.0825 73.6354 26.0376 72.9121 28.065C72.7674 28.4995 73.1291 28.5719 73.4907 28.5719H77.1074V28.4995Z" fill="white"/>
<path d="M83.9795 29.2235C83.9795 26.0375 86.2942 23.8652 89.0429 23.8652C91.1405 23.8652 93.2382 25.1686 93.2382 27.0512C93.2382 27.5581 92.9489 27.9926 92.3702 27.9926C91.6469 27.9926 91.3575 27.6305 91.1405 26.9788C90.9959 25.8927 90.4172 24.9514 88.8982 24.9514C87.5238 24.9514 86.3665 26.2547 86.3665 28.427C86.3665 30.9613 87.5238 33.0612 89.7662 33.0612C91.1405 33.0612 92.1532 32.3371 92.8042 31.5406C92.9489 31.3234 93.0935 31.3234 93.1659 31.3234C93.5275 31.3234 93.5999 31.613 93.5275 31.9026C92.9489 33.4232 91.5022 34.6542 89.1152 34.6542C85.9325 34.5818 83.9795 32.2647 83.9795 29.2235Z" fill="white"/>
<path d="M94.8291 29.2235C94.8291 26.0375 97.1438 23.8652 99.8925 23.8652C101.99 23.8652 104.088 25.1686 104.088 27.0512C104.088 27.5581 103.798 27.9926 103.22 27.9926C102.496 27.9926 102.207 27.6305 101.99 26.9788C101.845 25.8927 101.267 24.9514 99.7478 24.9514C98.3734 24.9514 97.2161 26.2547 97.2161 28.427C97.2161 30.9613 98.3735 33.0612 100.616 33.0612C101.99 33.0612 103.003 32.3371 103.654 31.5406C103.798 31.3234 103.943 31.3234 104.015 31.3234C104.377 31.3234 104.449 31.613 104.377 31.9026C103.798 33.4232 102.352 34.6542 99.9648 34.6542C96.7821 34.5818 94.8291 32.2647 94.8291 29.2235Z" fill="white"/>
<path d="M105.608 33.8574C105.608 33.6402 105.752 33.4954 105.969 33.3506C107.127 33.0609 107.127 32.6265 107.127 31.5403V26.3993C107.127 25.8924 107.054 25.458 106.548 25.458C105.969 25.458 105.391 25.5304 105.391 25.1683C105.391 24.8063 105.68 24.6615 106.114 24.5167C107.127 24.227 108.212 23.7926 108.79 23.7926C109.297 23.7926 109.514 23.9374 109.514 24.4442V31.4679C109.514 32.6265 109.514 33.0609 110.743 33.3506C110.96 33.423 111.177 33.5678 111.177 33.8574C111.177 34.2195 110.96 34.4367 109.586 34.4367C108.79 34.4367 108.067 34.4367 107.271 34.4367C105.897 34.4367 105.608 34.2195 105.608 33.8574ZM106.403 20.9686C106.403 20.2445 107.054 19.8101 108.067 19.8101C109.007 19.8101 109.658 20.3169 109.658 20.9686C109.658 21.7651 109.007 22.1996 108.067 22.1996C107.054 22.272 106.403 21.7651 106.403 20.9686Z" fill="white"/>
<path d="M111.828 29.2233C111.828 26.0373 114.143 23.7926 117.398 23.7926C120.653 23.7926 122.895 26.0373 122.895 29.2233C122.895 32.4093 120.653 34.654 117.398 34.654C114.07 34.5815 111.828 32.3369 111.828 29.2233ZM120.363 30.0198C120.363 27.7027 119.134 24.8787 117.108 24.8787C115.445 24.8787 114.287 26.1821 114.287 28.282C114.287 30.6715 115.517 33.423 117.542 33.423C119.206 33.4954 120.363 32.1196 120.363 30.0198ZM116.24 22.634C116.24 22.272 117.904 20.3894 118.338 19.8101C118.627 19.3756 119.061 19.3032 119.64 19.3032C120.363 19.3032 120.58 19.448 120.58 19.7377C120.58 20.4618 117.181 22.9237 116.602 22.9237C116.313 22.9237 116.24 22.9237 116.24 22.634Z" fill="white"/>
<path d="M123.835 33.8576C123.835 33.568 123.98 33.4956 124.197 33.3508C125.354 33.0611 125.354 32.6267 125.354 31.5405V26.3995C125.354 25.8926 125.282 25.5306 124.776 25.4582C124.197 25.4582 123.618 25.5306 123.618 25.1685C123.618 24.8065 123.98 24.6617 124.342 24.5169C125.354 24.2272 126.439 23.7928 127.018 23.7928C127.524 23.7928 127.741 23.9376 127.741 24.4445V25.6754C127.741 25.8202 127.741 25.8926 127.814 25.8926C127.958 25.8926 128.465 23.6479 131.358 23.6479C133.239 23.6479 134.541 24.7341 134.902 27.6305L135.264 31.1785C135.409 32.7715 135.481 32.9163 136.566 33.1335C136.855 33.2784 137 33.4232 137 33.7128C137 34.0749 136.783 34.2921 135.843 34.2921C134.613 34.2921 134.107 34.2921 132.949 34.2921C131.792 34.2921 131.503 34.1473 131.503 33.7128C131.503 33.4232 131.647 33.2784 131.937 33.206C133.022 32.9887 133.094 32.8439 132.877 31.0337L132.515 28.0649C132.298 26.1823 131.72 25.3134 130.273 25.3134C129.188 25.3134 127.741 26.3271 127.741 28.7166V31.3957C127.741 32.5543 127.741 32.9163 128.899 33.206C129.116 33.3508 129.333 33.4232 129.333 33.7128C129.333 34.0749 129.116 34.2921 127.741 34.2921H125.427C124.124 34.4369 123.835 34.2197 123.835 33.8576Z" fill="white"/>
<path d="M25.0998 35.3783C25.3168 35.3059 25.5338 35.2334 25.6785 35.0162C25.8231 34.7266 25.8955 34.5094 25.9678 34.2197C26.0401 34.0749 26.0401 33.9301 26.0401 33.7853C26.0401 33.6404 26.1125 33.4956 26.1125 33.3508C26.1125 33.1336 26.1125 32.9164 26.1125 32.6991C26.0401 32.0474 25.8231 31.3958 25.5338 30.8889C25.0275 29.9476 24.1594 29.2235 23.1468 28.789C22.1341 28.2822 21.0491 28.0649 19.8918 28.0649C17.6494 28.1374 15.4071 29.2959 14.4667 31.1785C13.9604 32.1199 13.8157 33.206 13.9604 34.2197C14.0327 34.5818 14.1051 35.0162 14.3221 35.3783L14.9731 35.161C15.1177 35.0886 15.2624 35.0886 15.4071 35.0162C15.6241 34.9438 15.7687 34.799 15.9857 34.6542C16.2751 34.5094 16.6367 34.5094 16.8537 34.6542C17.0707 34.799 17.2154 34.9438 17.5047 35.0162C17.7217 35.0162 17.8664 35.0162 18.0834 35.0886C18.2281 35.161 18.3728 35.3059 18.5174 35.3059C18.6621 35.3059 18.8791 35.2334 19.0238 35.161C19.2408 35.0162 19.4578 35.0162 19.7471 35.0162C19.9641 35.0162 20.1811 34.9438 20.3258 35.0162C20.4704 35.0162 20.6151 35.161 20.7598 35.2334C21.0491 35.3783 21.4108 35.5231 21.7724 35.4507C21.9171 35.4507 22.0618 35.3783 22.2064 35.4507C22.4958 35.5231 22.7128 35.8127 22.9298 35.9575C23.2191 36.1024 23.5808 36.1748 23.8701 36.1024C24.2318 36.0299 24.4488 35.8127 24.8104 35.6679L25.0998 35.3783Z" fill="white"/>
<path d="M0.506336 17.2759L0.57867 17.4208L0.723337 17.638L0.940338 17.7828L1.08501 17.9276L1.22967 18.0724C1.37434 18.1449 1.51901 18.2897 1.66367 18.4345C1.80834 18.5069 1.88068 18.5793 2.02534 18.6517C2.31468 18.2173 2.60401 17.7828 2.96568 17.4208C3.76135 16.4794 4.70169 15.6105 5.85903 15.0313C6.4377 14.7416 7.01637 14.5244 7.66737 14.3072C8.31838 14.1624 8.89704 14.0175 9.54805 14.0175C10.7777 13.9451 11.9351 14.0175 13.0201 14.0899C14.1051 14.1624 15.1177 14.1624 16.1304 14.0899C18.2281 13.8727 20.3258 13.2934 22.6404 13.0038C23.7978 12.859 24.9551 12.7866 26.1848 12.859C27.4145 12.9314 28.6441 13.221 29.7291 13.6555C31.9715 14.5244 34.0692 16.045 35.4435 18.1449L35.5158 18.2173L35.5882 17.9276L35.8052 17.7104V17.4932L35.8775 17.2759L36.0222 17.0587C36.0945 16.9139 36.0222 16.6967 35.9498 16.5519L35.8775 16.3346L35.9498 16.1174V15.8278C35.8775 15.6105 35.6605 15.5381 35.6605 15.3933C35.6605 15.1761 35.5882 14.9589 35.4435 14.814C35.2265 14.5968 34.9372 14.5244 34.7925 14.2348C34.7202 14.0899 34.7925 13.8727 34.7202 13.7279C34.6478 13.5831 34.5032 13.5107 34.5032 13.2934V13.0038C34.5032 12.7866 34.3585 12.6418 34.2862 12.4969L34.1415 12.2797V12.0625C32.6948 11.0488 31.1758 10.1074 29.5845 9.38335C28.1378 8.73167 26.6911 8.29722 25.1721 8.22481C23.6531 8.07999 22.1341 8.29722 20.6151 8.58685C17.5048 9.16613 14.2497 10.3971 10.7054 10.5419C8.96938 10.6143 7.01637 10.3971 5.35269 9.67299C4.84636 9.45576 4.41236 9.23853 3.97835 8.9489H3.83369C3.47202 8.9489 3.18268 9.02131 2.89335 9.23853C2.67635 9.38335 2.38701 9.60058 2.09768 9.67299C1.88068 9.67299 1.59134 9.67299 1.44667 9.89022C1.30201 10.1074 1.30201 10.3247 1.08501 10.4695L0.795671 10.6867L0.651003 10.9764L0.57867 10.9039C0.651003 11.0488 0.57867 11.1212 0.57867 11.1936L0.506336 11.4108C0.506336 11.5556 0.506336 11.7004 0.57867 11.7729L0.795671 12.0625V12.3521L0.651003 12.7142C0.57867 12.859 0.57867 13.0762 0.506336 13.2934L0.361668 13.4383C0.217001 13.5831 0.289335 13.7279 0.289335 13.8727C0.361668 14.0175 0.361668 14.2348 0.361668 14.3796C0.361668 14.5244 0.217001 14.6692 0.144667 14.814V15.1037L0.289335 15.3209C0.434002 15.5381 0.361668 15.8278 0.217001 15.9726C0.0723337 16.3346 0 16.407 0 16.6243L0.144667 16.9139L0.361668 17.1311L0.506336 17.2759Z" fill="white"/>
<path d="M30.0905 7.06616C30.4521 6.84894 30.0181 6.05244 29.8735 5.83521C29.7288 5.69039 29.5118 5.61798 29.3671 5.47316C29.2225 5.32835 29.1501 5.18353 29.0054 5.11112C28.7161 4.82148 28.3544 4.67666 27.9204 4.60425C27.6311 4.60425 27.3418 4.60425 26.9801 4.60425C26.6184 4.60425 26.4014 4.45944 26.1844 4.1698C25.9674 3.95257 25.7504 3.73535 25.5334 3.44571C25.3888 3.22848 25.2441 3.08366 24.9548 3.08366L24.5208 3.01125L24.4484 2.79403C24.3761 2.5768 24.2314 2.43198 24.0144 2.35957C23.7974 2.28716 23.5804 2.28716 23.4358 2.28716C23.2188 2.28716 23.0018 2.28716 22.8571 2.14234L22.5678 1.92512C22.3508 1.7803 22.1337 1.70789 21.9167 1.56307C21.6997 1.49066 21.5551 1.49066 21.3381 1.56307C21.1934 1.63548 20.9764 1.70789 20.7594 1.70789C20.4701 1.7803 20.0361 1.7803 19.7467 1.56307L19.6021 1.49066C19.3851 1.56307 19.3127 1.49066 19.0957 1.49066L18.8064 1.41825L18.5894 1.20103C18.4447 1.05621 18.2277 1.05621 18.0831 0.838981L18.0107 0.549344C17.9384 0.404526 17.7937 0.404526 17.6491 0.404526C17.5044 0.404526 17.3597 0.404526 17.2874 0.476935C16.9257 0.549344 16.5641 0.476935 16.2747 0.332117C16.1301 0.259708 15.9854 0.187299 15.8407 0.11489C15.6961 0.0424805 15.4791 0.0424805 15.3344 0.0424805C14.828 0.11489 14.611 0.476935 14.2494 0.766572C14.1047 0.91139 13.96 1.05621 13.8154 1.12862C13.6707 1.27344 13.526 1.27344 13.3814 1.27344C13.2367 1.27344 13.1644 1.20103 13.0197 1.20103C12.8027 1.20103 12.658 1.41825 12.5134 1.56307L12.224 1.85271C12.0794 1.92512 11.9347 1.85271 11.8624 1.92512L11.7177 1.99753L11.573 2.06994L11.5007 2.21475L11.356 2.28716L10.9944 2.35957C10.7774 2.35957 10.6327 2.28716 10.4157 2.35957C9.76469 2.43198 9.18602 2.93884 8.75202 3.44571C8.53502 3.73535 8.31802 4.1698 8.10102 4.45944C7.88401 4.74907 7.66701 4.89389 7.30534 5.03871C7.16068 5.11112 6.87134 5.11112 6.65434 5.32835L6.36501 5.61798C6.07567 6.05244 5.714 6.48689 5.56934 6.99376C5.78634 7.13857 6.00334 7.28339 6.22034 7.42821C7.52235 8.07989 8.96902 8.44194 10.488 8.36953C12.007 8.29712 13.5984 7.93507 15.1174 7.57303C16.7087 7.13857 18.3001 6.63171 19.9637 6.26966C21.6274 5.83521 23.4358 5.61798 25.2441 5.83521C26.4014 5.98003 27.5588 6.26966 28.6438 6.63171C28.9331 6.70412 29.1501 6.84894 29.4395 6.92135C29.5841 6.99376 29.8735 7.21098 30.0905 7.06616Z" fill="white"/>
<path d="M33.6349 27.1961C33.9243 26.8341 34.5029 26.7617 34.7923 26.3272C35.0816 25.8928 34.7923 25.0963 34.7199 24.6618C34.5753 24.155 34.7199 23.8653 34.7199 23.3585C34.7923 22.8516 34.7199 22.2723 34.5753 21.7655C34.4306 21.331 34.1413 20.8965 33.9243 20.4621C33.7073 20.0276 33.7073 19.5208 33.4179 19.0863C33.0563 18.5795 32.6223 18.0726 32.1159 17.6381C31.1756 16.7692 30.0906 16.1175 28.8609 15.6831C26.9802 14.959 25.0272 14.8866 22.9296 15.1762C20.8319 15.4659 18.6619 15.9727 16.3472 16.19C15.1899 16.3348 13.9602 16.3348 12.8752 16.3348C11.7902 16.3348 10.7052 16.2624 9.69249 16.4072C8.67982 16.4796 7.88415 16.7692 7.01614 17.1313C6.22047 17.5657 5.4248 18.145 4.84613 18.8691C3.54413 20.3173 2.82079 22.1999 2.45912 24.2274C2.45912 24.4446 2.38679 24.5894 2.38679 24.8066C2.38679 25.0239 2.31445 25.2411 2.31445 25.4583C2.38679 25.748 2.45912 25.8928 2.38679 26.1824L2.31445 26.3996C2.31445 26.6893 2.45912 26.9065 2.53145 27.1237C2.60379 27.5582 2.67612 27.8478 2.89312 27.9926C3.03779 28.1375 3.25479 28.2099 3.47179 28.2099L3.61646 28.1375L3.90579 28.3547C4.1228 28.6443 4.26746 28.4995 4.5568 28.4995L4.84613 28.5719L4.9908 28.7167H5.2078C5.35247 28.7167 5.4248 28.6443 5.56947 28.6443L5.93114 28.5719C6.00347 28.0651 6.00347 27.5582 6.14814 27.1237C6.43747 26.0376 6.87148 25.0239 7.52248 24.0825C8.24582 23.2136 9.18615 22.4171 10.3435 21.9827C11.5008 21.5482 12.6582 21.6206 13.5985 21.693C14.1048 21.693 14.5388 21.7655 14.9728 21.693C15.4069 21.693 15.7685 21.6206 16.2025 21.5482C16.9982 21.331 17.8662 21.0414 18.7342 20.6069C19.6022 20.2449 20.6149 19.8104 21.6275 19.5932C22.7126 19.376 23.7976 19.376 24.8102 19.4484C25.8952 19.5932 26.9079 19.8828 27.9206 20.2449C28.9333 20.6793 29.8736 21.2586 30.6693 21.9827C32.1883 23.286 33.2009 25.0963 33.6349 27.0513" fill="white"/>
<path d="M31.0313 29.5854C31.176 29.5854 31.393 29.5854 31.393 29.5854C31.3207 27.4132 30.525 25.3133 29.006 23.8651C27.8487 22.7066 26.2573 21.9101 24.5213 21.6204C23.6533 21.4756 22.7853 21.548 21.9896 21.6929C21.194 21.8377 20.326 22.1997 19.458 22.5618C18.5899 22.9238 17.6496 23.3583 16.6369 23.6479C16.1306 23.7927 15.5519 23.8651 14.9733 23.9375C14.4669 23.9375 13.9606 23.9375 13.4543 23.9375C12.5139 23.9375 11.6459 23.9375 10.9949 24.1548C10.3439 24.372 9.6929 24.8789 9.2589 25.4581C8.75257 26.1098 8.46323 26.8339 8.24623 27.6304C8.1739 28.0649 8.10156 28.4269 8.10156 28.8614C8.10156 29.2958 8.10156 29.7303 8.10156 30.1647C8.24623 31.6129 8.68023 32.9887 9.11423 34.5093L9.4759 34.4369C9.62057 34.4369 9.83757 34.4369 9.98224 34.5093C10.1992 34.5817 10.3439 34.7265 10.4886 34.7989C10.7056 34.8713 10.8502 34.8713 10.9949 35.0161C11.1396 35.0885 11.2119 35.0885 11.3566 35.0885C11.5012 35.0885 11.5736 35.0885 11.7182 35.0885C11.7182 34.8713 11.6459 34.7265 11.6459 34.5093C11.5012 32.9887 11.7906 31.4681 12.5139 30.1647C13.2373 28.8614 14.3946 27.8476 15.6243 27.1959C16.9263 26.5443 18.3006 26.1822 19.7473 26.1098C21.194 26.0374 22.5683 26.327 23.8703 26.9787C25.1723 27.558 26.3296 28.5717 27.1253 29.8027C27.5593 30.5268 27.8487 31.2509 28.0657 32.0474L28.4273 32.1198C28.572 32.1198 28.7167 32.1198 28.8613 32.0474C29.006 31.9025 29.006 31.5405 29.1507 31.3957C29.3677 31.2509 29.44 31.1784 29.5123 30.9612C29.5847 30.8164 29.5847 30.6716 29.657 30.5268C29.7293 30.3819 29.874 30.3095 29.874 30.1647L29.9463 29.8751C30.0187 29.6579 30.308 29.5854 30.4527 29.5854C30.742 29.513 30.8867 29.5854 31.0313 29.5854Z" fill="white"/>
</g>
<defs>
<clipPath id="clip0_62_4051">
<rect width="137" height="36" fill="white"/>
</clipPath>
</defs>
</svg>
