<svg width="216" height="49" viewBox="0 0 216 49" fill="none" xmlns="http://www.w3.org/2000/svg">
<g clip-path="url(#clip0_62_3915)">
<path d="M180.021 29.8463C183.066 29.8463 185.535 27.3778 185.535 24.3327C185.535 21.2876 183.066 18.8191 180.021 18.8191C176.976 18.8191 174.508 21.2876 174.508 24.3327C174.508 27.3778 176.976 29.8463 180.021 29.8463Z" fill="white"/>
<path d="M216 19.2937H203.78C201.637 7.99202 192.393 0 180.055 0C167.717 0 158.409 7.99202 156.264 19.2937H150.399C148.077 8.3743 138.266 0.677333 125.781 0.677333H106.182V19.2937H99.1523C97.01 7.99202 87.7685 0 75.4303 0C63.092 0 53.7838 7.99202 51.639 19.2937H44.6758V0.674768H33.5921V31.1573L12.7744 0.674768H0V47.9855H11.0836V16.8948L31.9014 47.9855H44.6758V29.3691H51.6159C53.7197 40.6682 62.9894 48.6628 75.4277 48.6628C87.866 48.6628 97.069 40.6708 99.1729 29.3691H106.182V47.9855H125.781C138.273 47.9855 148.09 40.3321 150.404 29.3691H156.243C158.347 40.6682 167.617 48.6628 180.055 48.6628C192.493 48.6628 201.696 40.6708 203.8 29.3691H216V19.2912V19.2937ZM75.4303 38.7286C67.251 38.7286 62.5892 32.5787 62.5892 24.3994C62.5892 16.2201 67.2535 9.86751 75.4303 9.86751C83.607 9.86751 88.2047 16.1534 88.2047 24.3994C88.2047 32.6454 83.6096 38.7286 75.4303 38.7286ZM125.987 38.2539H117.402V10.4089H125.987C134.03 10.4089 139.638 16.4253 139.638 24.3327C139.638 32.24 134.097 38.2565 125.987 38.2565V38.2539ZM180.055 38.7286C171.876 38.7286 167.214 32.5787 167.214 24.3994C167.214 16.2201 171.878 9.86751 180.055 9.86751C188.232 9.86751 192.83 16.1534 192.83 24.3994C192.83 32.6454 188.234 38.7286 180.055 38.7286Z" fill="white"/>
<path d="M75.3945 29.8463C78.4395 29.8463 80.908 27.3778 80.908 24.3327C80.908 21.2876 78.4395 18.8191 75.3945 18.8191C72.3494 18.8191 69.8809 21.2876 69.8809 24.3327C69.8809 27.3778 72.3494 29.8463 75.3945 29.8463Z" fill="white"/>
</g>
<defs>
<clipPath id="clip0_62_3915">
<rect width="216" height="48.6628" fill="white"/>
</clipPath>
</defs>
</svg>
